<svg width="28" height="28" viewBox="0 0 28 28" fill="none" xmlns="http://www.w3.org/2000/svg">
<path fill-rule="evenodd" clip-rule="evenodd" d="M0.666504 14C0.666504 6.63569 6.63502 0.666672 13.9998 0.666672C21.3642 0.666672 27.3332 6.63519 27.3332 14C27.3332 21.3643 21.3647 27.3333 13.9998 27.3333C6.63552 27.3333 0.666504 21.3648 0.666504 14ZM1.99984 14C1.99984 20.6284 7.37188 26 13.9998 26C20.6283 26 25.9998 20.628 25.9998 14C25.9998 7.37159 20.6278 2.00001 13.9998 2.00001C7.37143 2.00001 1.99984 7.37204 1.99984 14ZM11.5534 7.51677C11.2927 7.77678 11.2922 8.19889 11.5522 8.45958L16.3634 13.2836C16.7531 13.6744 16.7526 14.3069 16.3622 14.6971L11.5397 19.5173C11.2793 19.7776 11.2792 20.1997 11.5395 20.4601C11.7998 20.7205 12.2219 20.7206 12.4823 20.4603L17.3048 15.6401C18.2156 14.7298 18.2167 13.2538 17.3074 12.3421L12.4962 7.51803C12.2362 7.25734 11.8141 7.25677 11.5534 7.51677Z" fill="#0E9BD6"/>
<path d="M11.5522 8.45958L11.1982 8.81266L11.1982 8.81266L11.5522 8.45958ZM11.5534 7.51677L11.2004 7.16275L11.2004 7.16275L11.5534 7.51677ZM16.3634 13.2836L16.7174 12.9305L16.7174 12.9305L16.3634 13.2836ZM16.3622 14.6971L16.7157 15.0507L16.7157 15.0507L16.3622 14.6971ZM11.5397 19.5173L11.1863 19.1637L11.1863 19.1637L11.5397 19.5173ZM11.5395 20.4601L11.8932 20.1066L11.8932 20.1066L11.5395 20.4601ZM12.4823 20.4603L12.1289 20.1067L12.1289 20.1067L12.4823 20.4603ZM17.3048 15.6401L17.6583 15.9937L17.6583 15.9937L17.3048 15.6401ZM17.3074 12.3421L16.9534 12.6952L16.9534 12.6952L17.3074 12.3421ZM12.4962 7.51803L12.1422 7.87111L12.1422 7.87111L12.4962 7.51803ZM13.9998 0.166672C6.35887 0.166672 0.166504 6.35956 0.166504 14H1.1665C1.1665 6.91182 6.91118 1.16667 13.9998 1.16667V0.166672ZM27.8332 14C27.8332 6.35903 21.6403 0.166672 13.9998 0.166672V1.16667C21.088 1.16667 26.8332 6.91134 26.8332 14H27.8332ZM13.9998 27.8333C21.6408 27.8333 27.8332 21.6405 27.8332 14H26.8332C26.8332 21.0882 21.0885 26.8333 13.9998 26.8333V27.8333ZM0.166504 14C0.166504 21.641 6.35939 27.8333 13.9998 27.8333V26.8333C6.91165 26.8333 1.1665 21.0887 1.1665 14H0.166504ZM13.9998 25.5C7.64801 25.5 2.49984 20.3523 2.49984 14H1.49984C1.49984 20.9046 7.09575 26.5 13.9998 26.5V25.5ZM25.4998 14C25.4998 20.3518 20.3521 25.5 13.9998 25.5V26.5C20.9044 26.5 26.4998 20.9041 26.4998 14H25.4998ZM13.9998 2.50001C20.3517 2.50001 25.4998 7.64775 25.4998 14H26.4998C26.4998 7.09544 20.9039 1.50001 13.9998 1.50001V2.50001ZM2.49984 14C2.49984 7.64817 7.64758 2.50001 13.9998 2.50001V1.50001C7.09527 1.50001 1.49984 7.09591 1.49984 14H2.49984ZM11.9062 8.1065C11.8412 8.04133 11.8413 7.9358 11.9065 7.8708L11.2004 7.16275C10.7441 7.61775 10.7431 8.35644 11.1982 8.81266L11.9062 8.1065ZM16.7174 12.9305L11.9062 8.1065L11.1982 8.81266L16.0093 13.6367L16.7174 12.9305ZM16.7157 15.0507C17.3012 14.4655 17.3019 13.5167 16.7174 12.9305L16.0093 13.6367C16.2042 13.8321 16.2039 14.1484 16.0088 14.3434L16.7157 15.0507ZM11.8932 19.8709L16.7157 15.0507L16.0088 14.3434L11.1863 19.1637L11.8932 19.8709ZM11.8932 20.1066C11.8281 20.0415 11.8281 19.936 11.8932 19.8709L11.1863 19.1637C10.7306 19.6192 10.7304 20.3579 11.1859 20.8136L11.8932 20.1066ZM12.1289 20.1067C12.0638 20.1718 11.9582 20.1717 11.8932 20.1066L11.1859 20.8136C11.6414 21.2693 12.3801 21.2695 12.8358 20.814L12.1289 20.1067ZM16.9514 15.2865L12.1289 20.1067L12.8358 20.814L17.6583 15.9937L16.9514 15.2865ZM16.9534 12.6952C17.6679 13.4115 17.6669 14.5712 16.9514 15.2865L17.6583 15.9937C18.7642 14.8884 18.7656 13.0961 17.6615 11.989L16.9534 12.6952ZM12.1422 7.87111L16.9534 12.6952L17.6615 11.989L12.8503 7.16495L12.1422 7.87111ZM11.9065 7.8708C11.9717 7.8058 12.0772 7.80594 12.1422 7.87111L12.8503 7.16495C12.3953 6.70873 11.6566 6.70775 11.2004 7.16275L11.9065 7.8708Z" fill="#0E9BD6"/>
</svg>
