<svg width="48" height="16" viewBox="0 0 48 16" fill="none" xmlns="http://www.w3.org/2000/svg">
<path fill-rule="evenodd" clip-rule="evenodd" d="M41.3307 16C41.0401 16 40.7467 15.904 40.4987 15.7067C39.9254 15.2507 39.8321 14.408 40.2907 13.8347L44.9574 8.00007L40.2907 2.16545C39.8321 1.59212 39.9254 0.749458 40.4987 0.293462C41.0774 -0.170534 41.9147 -0.0718686 42.376 0.50146L47.7067 7.16807C48.096 7.6534 48.096 8.3494 47.7067 8.83206L42.376 15.4987C42.112 15.8267 41.7227 16 41.3307 16Z" fill="#0E9BD6"/>
<path fill-rule="evenodd" clip-rule="evenodd" d="M46.9565 9.33602H1.04348C0.467478 9.33602 0 8.73602 0 8.00003C0 7.26137 0.467478 6.66937 1.04348 6.66937H46.9565C47.5325 6.66937 48 7.26137 48 8.00003C48 8.73602 47.5325 9.33602 46.9565 9.33602Z" fill="#0E9BD6"/>
</svg>
