<svg width="12" height="41" viewBox="0 0 12 41" fill="none" xmlns="http://www.w3.org/2000/svg">
<path fill-rule="evenodd" clip-rule="evenodd" d="M11.2983 5.65715C11.434 5.48666 11.5 5.28499 11.5 5.08516C11.5 4.81566 11.3808 4.548 11.1553 4.3665L6.68951 0.795628C6.52099 0.614414 6.27424 0.5 6.00002 0.5C5.727 0.5 5.48313 0.612598 5.31597 0.791313L0.844754 4.3665C0.450591 4.68366 0.382758 5.25932 0.701755 5.65715C1.01525 6.05132 1.59458 6.11548 1.98874 5.80015L5.08519 3.32356L5.08519 39.6304C5.08519 40.1104 5.49219 40.5 6.00002 40.5C6.50602 40.5 6.91851 40.1104 6.91851 39.6304L6.91851 3.32645L10.0113 5.80015C10.4055 6.11548 10.9848 6.05132 11.2983 5.65715Z" fill="white"/>
</svg>
