<svg width="144" height="144" viewBox="0 0 144 144" fill="none" xmlns="http://www.w3.org/2000/svg">
<g clip-path="url(#clip0)">
<path d="M71.8594 39.9456C56.351 39.9456 43.7344 52.5622 43.7344 68.0707C43.7344 83.5791 56.351 96.1956 71.8594 96.1956C87.3678 96.1956 99.9844 83.5791 99.9844 68.0707C99.9844 52.5622 87.3678 39.9456 71.8594 39.9456ZM71.8594 91.9769C58.6775 91.9769 47.9531 81.2526 47.9531 68.0707C47.9531 54.8887 58.6775 44.1644 71.8594 44.1644C85.0413 44.1644 95.7656 54.8887 95.7656 68.0707C95.7656 81.2526 85.0413 91.9769 71.8594 91.9769Z" fill="white"/>
<path d="M135.062 51.0702L132.114 54.0878C137.115 58.9756 140.043 62.5925 140.36 62.9888L143.653 60.3515C143.319 59.9349 140.243 56.133 135.062 51.0702Z" fill="white"/>
<path d="M106.43 29.8156L104.46 33.5466C108.373 35.6121 112.321 38.0461 116.195 40.781L118.628 37.3342C114.607 34.495 110.502 31.9655 106.43 29.8156Z" fill="white"/>
<path d="M122.091 39.8697L119.542 43.2315C120.632 44.0578 121.731 44.9198 122.808 45.7937L125.466 42.5177C124.353 41.6146 123.218 40.7236 122.091 39.8697Z" fill="#00D2FF"/>
<path d="M128.753 45.27L125.994 48.4616C127.036 49.3619 128.079 50.2926 129.096 51.2275L131.952 48.1222C130.903 47.158 129.827 46.1984 128.753 45.27Z" fill="#00D2FF"/>
<path d="M8.88916 51.0702C3.70881 56.133 0.632221 59.9349 0.298096 60.3515L3.59125 62.9888C3.9085 62.5925 6.83631 58.9756 11.8381 54.0878L8.88916 51.0702Z" fill="#00D2FF"/>
<path d="M15.1987 45.27C14.1246 46.1984 13.0482 47.158 12 48.1222L14.8553 51.2275C15.8723 50.2923 16.916 49.3619 17.9574 48.4616L15.1987 45.27Z" fill="white"/>
<path d="M37.5221 29.8153C33.4494 31.9655 29.3451 34.495 25.3235 37.334L27.7563 40.7804C31.6305 38.0458 35.5787 35.6119 39.4915 33.5464L37.5221 29.8153Z" fill="white"/>
<path d="M21.8601 39.8697C20.7339 40.7236 19.5985 41.6146 18.4854 42.5177L21.1429 45.7937C22.2209 44.9198 23.3195 44.0575 24.409 43.2315L21.8601 39.8697Z" fill="#00D2FF"/>
<path d="M138.193 66.7519C137.891 66.3747 130.66 57.4135 118.889 48.3266C107.949 39.8807 90.9087 29.8125 71.8593 29.8125C52.81 29.8125 35.7699 39.8807 24.8293 48.3266C13.0592 57.4135 5.82775 66.3747 5.52541 66.7519L4.46875 68.0707L5.52541 69.3894C5.82747 69.7666 13.059 78.7278 24.8293 87.8147C35.7696 96.2606 52.8097 106.329 71.8593 106.329C90.909 106.329 107.949 96.2606 118.889 87.8147C130.66 78.7278 137.891 69.7666 138.193 69.3894L139.25 68.0707L138.193 66.7519ZM27.4868 84.5364C18.6772 77.7473 12.373 70.8781 9.93316 68.0701C12.3618 65.2728 18.6227 58.4477 27.4072 51.6659C32.2734 47.9092 38.3943 43.8162 45.3546 40.5194C38.1189 47.4829 33.6093 57.2594 33.6093 68.0707C33.6093 78.8811 38.1186 88.6573 45.3535 95.6205C38.426 92.3394 32.333 88.2712 27.4868 84.5364ZM71.8593 102.102C53.0943 102.102 37.8281 86.8357 37.8281 68.0707C37.8281 49.3057 53.0943 34.0394 71.8593 34.0394C90.6243 34.0394 105.891 49.3057 105.891 68.0707C105.891 86.8357 90.6243 102.102 71.8593 102.102ZM116.311 84.4754C111.445 88.2321 105.324 92.3251 98.3641 95.6219C105.6 88.6584 110.109 78.8819 110.109 68.0707C110.109 57.2603 105.6 47.484 98.3652 40.5208C105.293 43.8022 111.386 47.8702 116.232 51.6049C125.042 58.394 131.346 65.2629 133.786 68.0712C131.357 70.8685 125.096 77.6936 116.311 84.4754Z" fill="#00D2FF"/>
<path d="M74.1094 110.126H69.8906V114.345H74.1094V110.126Z" fill="white"/>
<path d="M62.4375 110.126H58.2188V114.345H62.4375V110.126Z" fill="#00D2FF"/>
<path d="M102.264 103.136C97.9996 105.175 93.6959 106.815 89.4727 108.012L90.623 112.071C95.0754 110.809 99.6044 109.084 104.084 106.943L102.264 103.136Z" fill="#00D2FF"/>
<path d="M126.382 87.1847C125.327 88.0836 124.248 88.9732 123.177 89.8284L125.81 93.125C126.916 92.2419 128.029 91.3241 129.118 90.3966L126.382 87.1847Z" fill="white"/>
<path d="M119.892 92.3659C115.301 95.7909 110.609 98.7879 105.947 101.274L107.932 104.997C112.781 102.411 117.654 99.2987 122.415 95.7473L119.892 92.3659Z" fill="#00D2FF"/>
<path d="M139.19 74.7112C137.184 76.9641 133.874 80.4808 129.504 84.4411L132.337 87.5672C136.845 83.4817 140.265 79.8471 142.341 77.5178L139.19 74.7112Z" fill="#00D2FF"/>
<path d="M34.5016 99.45L32.3784 103.096C33.6274 103.823 34.8942 104.527 36.1438 105.187L38.1142 101.456C36.9161 100.823 35.7005 100.148 34.5016 99.45Z" fill="white"/>
<path d="M4.71268 74.9182L1.57056 77.733C3.6774 80.0851 7.14184 83.7475 11.6806 87.8375L14.5047 84.7035C10.1045 80.7381 6.75118 77.1936 4.71268 74.9182Z" fill="#00D2FF"/>
<path d="M17.6349 87.4384L14.9084 90.6578C19.4023 94.4626 24.0437 97.8944 28.7043 100.858L30.9681 97.2984C26.4687 94.4373 21.9827 91.1199 17.6349 87.4384Z" fill="#00D2FF"/>
<path d="M41.8043 103.303L40.0015 107.117C44.3592 109.177 48.7649 110.844 53.0962 112.071L54.2462 108.012C50.1386 106.848 45.9521 105.264 41.8043 103.303Z" fill="white"/>
<path d="M85.7812 110.126H81.5625V114.345H85.7812V110.126Z" fill="#00D2FF"/>
<path d="M71.8594 57.5238C66.0437 57.5238 61.3125 62.2552 61.3125 68.0707C61.3125 73.8863 66.0437 78.6175 71.8594 78.6175C77.6751 78.6175 82.4062 73.8863 82.4062 68.0707C82.4062 62.255 77.6751 57.5238 71.8594 57.5238ZM71.8594 74.3988C68.3702 74.3988 65.5312 71.5598 65.5312 68.0707C65.5312 64.5815 68.3702 61.7425 71.8594 61.7425C75.3486 61.7425 78.1875 64.5815 78.1875 68.0707C78.1875 71.5598 75.3486 74.3988 71.8594 74.3988Z" fill="white"/>
<path d="M62.0777 79.1221L59.2795 82.2789C60.4242 83.2936 61.6893 84.1689 63.0399 84.8799L65.0052 81.1468C63.9542 80.5936 62.9695 79.9121 62.0777 79.1221Z" fill="white"/>
<path d="M71.8593 82.8363C70.6648 82.8363 69.4766 82.6932 68.3282 82.4102L67.3191 86.5063C68.7976 86.8705 70.3251 87.055 71.8593 87.055H71.8737L71.9198 87.0548V82.836L71.8593 82.8363Z" fill="#00D2FF"/>
<path d="M58.055 73.314L54.113 74.817C54.6564 76.2418 55.3739 77.6025 56.2463 78.8611L59.7136 76.4584C59.0352 75.4791 58.4772 74.421 58.055 73.314Z" fill="white"/>
<path d="M84.4134 53.8405L81.6206 57.0023C82.5136 57.791 83.3106 58.6853 83.9896 59.6618L87.4526 57.2526C86.581 56 85.5587 54.8519 84.4134 53.8405Z" fill="#00D2FF"/>
<path d="M56.2287 57.3061C55.3579 58.5667 54.6422 59.9296 54.1013 61.3567L58.0458 62.8523C58.4663 61.7437 59.0229 60.6842 59.7004 59.7032L56.2287 57.3061Z" fill="#00D2FF"/>
<path d="M63.0107 51.2769C61.6624 51.9902 60.3993 52.8669 59.2566 53.8833L62.0598 57.0358C62.95 56.2441 63.9335 55.5615 64.9834 55.0063L63.0107 51.2769Z" fill="white"/>
<path d="M57.0937 68.0707C57.0937 67.4798 57.1292 66.886 57.1987 66.3055L53.01 65.8029C52.9203 66.5494 52.875 67.3127 52.875 68.0715C52.8753 68.841 52.9222 69.6153 53.0142 70.3738L57.2023 69.865C57.1306 69.2744 57.094 68.6706 57.0937 68.0707Z" fill="#00D2FF"/>
<path d="M71.8253 49.0863C70.291 49.0891 68.7639 49.2764 67.2859 49.6431L68.3026 53.7379C69.4507 53.453 70.6384 53.3073 71.8329 53.305L71.8253 49.0863Z" fill="#00D2FF"/>
<path d="M84.0339 76.4162C83.3597 77.3964 82.5672 78.2952 81.6787 79.0881L84.4873 82.2355C85.6275 81.2183 86.6442 80.0649 87.5093 78.8074L84.0339 76.4162Z" fill="#00D2FF"/>
<path d="M78.759 81.1229C77.7089 81.6804 76.5926 82.1093 75.4414 82.3975L76.4654 86.49C77.9482 86.1191 79.3857 85.567 80.7376 84.8489L78.759 81.1229Z" fill="#00D2FF"/>
<path d="M86.5233 69.8108C86.3844 70.9912 86.1012 72.1533 85.6821 73.2642L89.6295 74.7529C90.1692 73.3213 90.5337 71.8245 90.7128 70.3041L86.5233 69.8108Z" fill="#00D2FF"/>
<path d="M89.5932 61.2928L85.6541 62.8029C86.0785 63.9104 86.3676 65.0703 86.5136 66.2507L90.7005 65.7335C90.5129 64.2139 90.1406 62.7199 89.5932 61.2928Z" fill="white"/>
<path d="M76.3663 49.6274L75.3643 53.7252C76.5174 54.007 77.6356 54.43 78.6889 54.9824L80.6487 51.2466C79.2925 50.5353 77.8516 49.9905 76.3663 49.6274Z" fill="#00D2FF"/>
<path fill-rule="evenodd" clip-rule="evenodd" d="M116.565 1.35056H144V1.40624H144.046V28.8416H139.781V5.61515H116.565V1.35056Z" fill="#00D2FF"/>
<path fill-rule="evenodd" clip-rule="evenodd" d="M0 28.8367L-1.19924e-06 1.40136L0.0556827 1.40136L0.0556827 1.35546L27.4911 1.35546L27.4911 5.62005L4.26459 5.62006L4.26459 28.8367L0 28.8367Z" fill="#00D2FF"/>
<path fill-rule="evenodd" clip-rule="evenodd" d="M116.565 143.929H144V143.873H144.046V116.438H139.781V139.664H116.565V143.929Z" fill="#00D2FF"/>
<path fill-rule="evenodd" clip-rule="evenodd" d="M0 116.442L-1.19924e-06 143.878L0.0556827 143.878L0.0556827 143.924L27.4911 143.924L27.4911 139.659L4.26459 139.659L4.26459 116.442L0 116.442Z" fill="#00D2FF"/>
</g>
<defs>
<clipPath id="clip0">
<rect width="144" height="144" fill="white"/>
</clipPath>
</defs>
</svg>
