<svg width="144" height="144" viewBox="0 0 144 144" fill="none" xmlns="http://www.w3.org/2000/svg">
<path d="M0.16394 0.0469666V12.699H12.816V0.0469666H0.16394ZM8.59891 8.48165H4.38128V4.26431H8.59863V8.48165H8.59891Z" fill="#00D2FF"/>
<path d="M131.184 0.0469666V12.699H143.836V0.0469666H131.184ZM139.619 8.48165H135.401V4.26431H139.619V8.48165Z" fill="#00D2FF"/>
<path d="M0.16394 131.348V144H12.816V131.348H0.16394ZM8.59891 139.783H4.38128V135.565H8.59863V139.783H8.59891Z" fill="white"/>
<path d="M131.184 131.348V144H143.836V131.348H131.184ZM139.619 139.783H135.401V135.565H139.619V139.783Z" fill="#00D2FF"/>
<path d="M137.333 69.8678C136.809 53.1976 130.072 37.6014 118.224 25.7535C106.376 13.9053 90.78 7.16962 74.11 6.64453V0H69.8927V6.64453C53.2224 7.16934 37.6263 13.9053 25.7783 25.7535C13.9304 37.6017 7.19416 53.1976 6.66907 69.8678H0.0245361V74.0852H6.66907C7.19388 90.7554 13.9298 106.352 25.778 118.2C37.6263 130.047 53.2221 136.783 69.8924 137.308V143.953H74.1097V137.308C90.78 136.784 106.376 130.048 118.224 118.2C130.072 106.351 136.808 90.7554 137.333 74.0852H143.978V69.8678H137.333ZM133.113 74.0852C132.021 106.131 106.156 131.996 74.1097 133.088V127.084H69.8924V133.088C37.8468 131.996 11.9816 106.131 10.8898 74.0852H16.8945V69.8678H10.8898C11.9816 37.8219 37.8468 11.9568 69.8924 10.8647V16.8694H74.1097V10.8647C106.156 11.9568 132.021 37.8219 133.113 69.8678H127.108V74.0852H133.113Z" fill="#00D2FF"/>
<path d="M11.7489 29.3034C8.32079 34.1614 5.47004 39.465 3.27686 45.0666L7.20395 46.6045C9.27367 41.319 11.9619 36.3161 15.1948 31.7348L11.7489 29.3034Z" fill="white"/>
<path d="M42.0752 4.51154C40.7564 5.09625 39.4393 5.72597 38.1619 6.38297L40.0904 10.1337C41.2967 9.51357 42.5395 8.91901 43.7846 8.36719L42.0752 4.51154Z" fill="#00DFFF"/>
<path d="M34.3636 8.47717C29.1939 11.5276 24.4178 15.1968 20.1672 19.3826L23.1265 22.3878C27.1315 18.4433 31.6332 14.9853 36.5067 12.1095L34.3636 8.47717Z" fill="white"/>
<path d="M17.1659 22.5202C16.2009 23.5912 15.2556 24.705 14.3564 25.8308L17.6519 28.4625C18.4993 27.4016 19.3897 26.3523 20.299 25.3434L17.1659 22.5202Z" fill="#00DFFF"/>
<path d="M126.348 115.49C125.5 116.552 124.61 117.602 123.702 118.609L126.835 121.433C127.799 120.363 128.744 119.249 129.644 118.122L126.348 115.49Z" fill="white"/>
<path d="M136.796 97.3485C134.726 102.635 132.038 107.637 128.805 112.218L132.251 114.65C135.68 109.792 138.53 104.489 140.723 98.8864L136.796 97.3485Z" fill="#00D2FF"/>
<path d="M120.874 121.565C116.869 125.51 112.367 128.968 107.494 131.844L109.637 135.476C114.806 132.425 119.583 128.756 123.833 124.57L120.874 121.565Z" fill="#00D2FF"/>
<path d="M103.91 133.82C102.704 134.439 101.462 135.034 100.216 135.586L101.926 139.442C103.245 138.857 104.561 138.227 105.839 137.57L103.91 133.82Z" fill="white"/>
<path d="M72 23.4768C45.2571 23.4768 23.5001 45.2337 23.5001 71.9767C23.5001 98.7196 45.2571 120.476 72 120.476C98.7429 120.476 120.5 98.7193 120.5 71.9764C120.5 45.2335 98.7429 23.4768 72 23.4768ZM72 116.259C47.5824 116.259 27.7175 96.394 27.7175 71.9764C27.7175 47.5588 47.5824 27.6942 72 27.6942C96.4175 27.6942 116.283 47.5591 116.283 71.9767C116.283 96.3942 96.4175 116.259 72 116.259Z" fill="white"/>
<path d="M48.8984 48.8745V63.5417H53.1158V53.0918H63.5653V48.8745H48.8984Z" fill="#00D2FF"/>
<path d="M80.4348 48.8745V53.0918H90.8847V63.5417H95.102V48.8745H80.4348Z" fill="#00D2FF"/>
<path d="M53.1158 90.8612V80.4113H48.8984V95.0785H63.5653V90.8612H53.1158Z" fill="#00D2FF"/>
<path d="M90.8847 80.4113V90.8612H80.4348V95.0785H95.102V80.4113H90.8847Z" fill="#00D2FF"/>
<path d="M72 31.9115C49.9081 31.9115 31.9348 49.8845 31.9348 71.9764C31.9348 94.0683 49.9081 112.042 72 112.042C94.0919 112.042 112.065 94.0685 112.065 71.9764C112.065 49.8842 94.0919 31.9115 72 31.9115ZM72 107.824C52.2335 107.824 36.1524 91.7432 36.1524 71.9766C36.1524 52.2101 52.2335 36.1288 72 36.1288C91.7665 36.1288 107.848 52.2098 107.848 71.9764C107.848 91.7429 91.7665 107.824 72 107.824Z" fill="#00D2FF"/>
<path d="M100.562 116.267C99.4305 116.999 98.258 117.696 97.0759 118.338L99.0891 122.044C100.366 121.351 101.632 120.599 102.854 119.808L100.562 116.267Z" fill="#00DFFF"/>
<path d="M92.2002 120.67C90.958 121.188 89.6797 121.663 88.4003 122.083L89.7157 126.09C91.0977 125.636 92.4795 125.123 93.8219 124.563L92.2002 120.67Z" fill="white"/>
<path d="M108.008 110.445C107.025 111.366 105.994 112.26 104.944 113.102L107.585 116.391C108.717 115.482 109.83 114.517 110.891 113.523L108.008 110.445Z" fill="white"/>
<path d="M122.658 86.5879C122.289 87.8653 121.865 89.145 121.398 90.392L125.348 91.8697C125.852 90.5225 126.31 89.1394 126.709 87.7587L122.658 86.5879Z" fill="#00DFFF"/>
<path d="M119.248 95.346C118.65 96.5498 117.997 97.7465 117.307 98.9033L120.929 101.064C121.674 99.8154 122.379 98.5225 123.025 97.222L119.248 95.346Z" fill="#00DFFF"/>
<path d="M114.305 103.397C113.5 104.477 112.645 105.539 111.76 106.553L114.941 109.323C115.895 108.228 116.819 107.081 117.687 105.915L114.305 103.397Z" fill="#00DFFF"/>
<path d="M19.4129 50.1544C18.8538 51.4974 18.3403 52.8792 17.8866 54.261L21.8936 55.5761C22.3132 54.297 22.7885 53.0187 23.306 51.7759L19.4129 50.1544Z" fill="#00D2FF"/>
<path d="M24.1684 41.1233C23.3778 42.3453 22.6255 43.6118 21.9325 44.8878L25.6385 46.901C26.2801 45.7192 26.977 44.5464 27.7097 43.4146L24.1684 41.1233Z" fill="white"/>
<path d="M30.4534 33.086C29.4601 34.1466 28.4948 35.2592 27.585 36.3923L30.8736 39.0324C31.7168 37.982 32.6109 36.9515 33.5311 35.9691L30.4534 33.086Z" fill="#00D2FF"/>
<path d="M46.7544 20.9514C45.453 21.5977 44.1604 22.3031 42.9122 23.0481L45.0734 26.6698C46.229 25.9802 47.4255 25.3274 48.6306 24.7286L46.7544 20.9514Z" fill="#00D2FF"/>
<path d="M56.2179 17.2674C54.837 17.6665 53.4538 18.1241 52.1072 18.6275L53.5846 22.5776C54.8308 22.1116 56.1108 21.6881 57.3888 21.3185L56.2179 17.2674Z" fill="#00D2FF"/>
<path d="M38.061 26.2899C36.8955 27.1575 35.7491 28.0817 34.6531 29.036L37.4228 32.2166C38.4384 31.3321 39.5004 30.4763 40.5799 29.6722L38.061 26.2899Z" fill="white"/>
<path d="M74.1076 69.8678H69.8903V74.0852H74.1076V69.8678Z" fill="white"/>
</svg>
