<svg width="144" height="144" viewBox="0 0 144 144" fill="none" xmlns="http://www.w3.org/2000/svg">
<g clip-path="url(#clip0)">
<path d="M71.7868 52.8094C60.4212 52.8094 51.1748 62.0558 51.1748 73.4214C51.1748 84.787 60.4212 94.0334 71.7868 94.0334C83.1524 94.0334 92.3988 84.787 92.3988 73.4214C92.3988 62.0558 83.1524 52.8094 71.7868 52.8094ZM71.7868 89.7691C62.7727 89.7691 55.4394 82.4358 55.4394 73.4217C55.4394 64.4076 62.7727 57.0743 71.7868 57.0743C80.8008 57.0743 88.1342 64.4076 88.1342 73.4217C88.1342 82.4358 80.8008 89.7691 71.7868 89.7691Z" fill="white"/>
<path d="M6.01952 73.4214C19.6618 50.2636 41.0576 35.6456 64.8922 33.2527L64.4664 29.0095C51.5871 30.3024 39.4492 34.8952 28.3901 42.6597C17.7988 50.096 8.57074 60.3667 1.70346 72.362L1.0968 73.4214L1.70318 74.4806C8.57018 86.476 17.7985 96.7466 28.3899 104.183C39.4489 111.948 51.5868 116.54 64.4661 117.833L64.8919 113.59C41.0576 111.197 19.6618 96.5793 6.01952 73.4214Z" fill="#00D2FF"/>
<path d="M141.87 72.3623C135.003 60.367 125.775 50.0963 115.184 42.66C104.125 34.8953 91.9867 30.303 79.1075 29.0098L78.6816 33.253C102.516 35.6459 123.912 50.2639 137.554 73.4217C123.912 96.5796 102.516 111.198 78.6816 113.59L79.1075 117.834C91.9867 116.541 104.125 111.948 115.184 104.183C125.775 96.7472 135.003 86.4765 141.87 74.4812L142.477 73.422L141.87 72.3623Z" fill="#00D2FF"/>
<path d="M42.6456 44.2803V60.6279H46.9102V48.5449H58.993V44.2803H42.6456Z" fill="#00D2FF"/>
<path d="M84.5806 44.2803V48.5449H96.6633V60.6279H100.928V44.2803H84.5806Z" fill="#00D2FF"/>
<path d="M46.9102 98.298V86.2152H42.6456V102.563H58.993V98.298H46.9102Z" fill="#00D2FF"/>
<path d="M96.6633 86.2152V98.298H84.5806V102.563H100.928V86.2152H96.6633Z" fill="#00D2FF"/>
<path d="M73.919 19.9724H69.6544V39.8737H73.919V19.9724Z" fill="#00D2FF"/>
<path d="M73.919 44.1382H69.6544V48.4028H73.919V44.1382Z" fill="white"/>
<path d="M73.919 106.969H69.6544V126.871H73.919V106.969Z" fill="#00D2FF"/>
<path d="M73.919 98.4403H69.6544V102.705H73.919V98.4403Z" fill="white"/>
<path d="M38.2388 71.2893H18.3375V75.5539H38.2388V71.2893Z" fill="#0E9BD6"/>
<path d="M46.768 71.2893H42.5034V75.5539H46.768V71.2893Z" fill="white"/>
<path d="M101.07 71.2893H96.8054V75.5539H101.07V71.2893Z" fill="white"/>
<path d="M125.236 71.2893H105.335V75.5539H125.236V71.2893Z" fill="#0E9BD6"/>
<path d="M107.976 26.5356L104.96 29.5511L107.976 32.5665L110.991 29.5511L107.976 26.5356Z" fill="white"/>
<path d="M115.682 18.8351L110.995 23.5212L114.011 26.5371L117.448 23.0996H144V18.8351H115.682Z" fill="white"/>
<path d="M93.7637 120.816L90.7482 123.831L93.7637 126.847L96.7791 123.831L93.7637 120.816Z" fill="#00D2FF"/>
<path d="M111.335 138.385L99.7956 126.845L96.78 129.861L109.569 142.649H138.883V138.385H111.335Z" fill="#00D2FF"/>
<path d="M49.8061 120.815L46.7906 123.831L49.8061 126.846L52.8216 123.831L49.8061 120.815Z" fill="white"/>
<path d="M43.778 126.845L32.2383 138.385H0.14209V142.649H34.0046L46.7936 129.861L43.778 126.845Z" fill="white"/>
<path d="M25.0189 129.287H20.7543V133.552H25.0189V129.287Z" fill="#00D2FF"/>
<path d="M16.4897 129.287H12.2251V133.552H16.4897V129.287Z" fill="#00D2FF"/>
<path d="M7.96052 129.287H3.69592V133.552H7.96052V129.287Z" fill="#00D2FF"/>
<path d="M114.717 117.915H110.452V122.18H114.717V117.915Z" fill="white"/>
<path d="M138.882 117.915H118.981V122.18H138.882V117.915Z" fill="white"/>
<path d="M114.717 126.444H110.452V130.709H114.717V126.444Z" fill="white"/>
<path d="M138.882 126.444H118.981V130.709H138.882V126.444Z" fill="white"/>
<path d="M132.628 10.1638H116.564V14.4284H132.628V10.1638Z" fill="#00D2FF"/>
<path d="M144 1.35056H116.564V5.61515H144V1.35056Z" fill="#00D2FF"/>
<path d="M0 4.47778V25.8005H21.3227V4.47778H0ZM17.0584 21.5362H4.26459V8.74238H17.0584V21.5362Z" fill="#00D2FF"/>
<path d="M5.11731 106.259V124.739H23.5971V106.259H5.11731ZM19.3325 120.474H9.3819V110.523H19.3325V120.474Z" fill="white"/>
<path d="M58.14 4.47778H26.8667V8.74238H58.14V4.47778Z" fill="#00D2FF"/>
<path d="M58.14 13.007H26.8667V17.2716H58.14V13.007Z" fill="#00D2FF"/>
<path d="M43.9248 21.5361H26.8667V25.8007H43.9248V21.5361Z" fill="white"/>
<path d="M63.9686 73.4214H59.7037C59.7037 76.3248 60.7525 79.1333 62.6571 81.3293L65.8791 78.5354C64.6473 77.1148 63.9686 75.2985 63.9686 73.4214Z" fill="#00D2FF"/>
<path d="M68.5414 80.5342L66.7639 84.4104C68.3468 85.1363 70.0368 85.5045 71.7868 85.5045V81.2399C70.6547 81.2399 69.5626 81.0025 68.5414 80.5342Z" fill="white"/>
<path d="M82.7759 68.3986L78.8994 70.1761C79.368 71.1973 79.6053 72.2894 79.6053 73.4214H83.8699C83.8697 71.6715 83.5018 69.9815 82.7759 68.3986Z" fill="#00D2FF"/>
<path d="M71.7869 61.3384V65.6033C73.6642 65.6033 75.4802 66.2819 76.9008 67.5138L79.6948 64.2918C77.4985 62.3872 74.6902 61.3384 71.7869 61.3384Z" fill="#00D2FF"/>
<path d="M122.478 60.244L119.359 63.1521C120.294 64.1548 121.22 65.2013 122.11 66.2628L125.377 63.522C124.439 62.4037 123.464 61.301 122.478 60.244Z" fill="#00D2FF"/>
<path d="M108.204 48.1908L105.877 51.7649C109.592 54.1834 113.149 57.0201 116.449 60.1957L119.406 57.1227C115.912 53.7604 112.143 50.7555 108.204 48.1908Z" fill="white"/>
<path d="M21.4637 80.5804L18.1967 83.3212C21.3098 87.032 24.7135 90.4351 28.3135 93.4361L31.0439 90.1606C27.6379 87.3208 24.4145 84.0977 21.4637 80.5804Z" fill="white"/>
<path d="M34.2996 92.7183L31.7635 96.147C32.9403 97.0175 34.1533 97.8601 35.3697 98.6521L37.6968 95.0783C36.5515 94.3327 35.4085 93.5387 34.2996 92.7183Z" fill="#00D2FF"/>
</g>
<defs>
<clipPath id="clip0">
<rect width="144" height="144" fill="white"/>
</clipPath>
</defs>
</svg>
