<svg width="24" height="24" viewBox="0 0 24 24" fill="none" xmlns="http://www.w3.org/2000/svg">
<path d="M15.5 4C15.7761 4 16 4.22386 16 4.5V6.7C16 6.97614 15.7761 7.2 15.5 7.2H14.4C13.848 7.2 13.6 7.848 13.6 8.4V9.9C13.6 10.1761 13.8239 10.4 14.1 10.4H15.5C15.7761 10.4 16 10.6239 16 10.9V13.1C16 13.3761 15.7761 13.6 15.5 13.6H14.1C13.8239 13.6 13.6 13.8239 13.6 14.1V19.5C13.6 19.7761 13.3761 20 13.1 20H10.9C10.6239 20 10.4 19.7761 10.4 19.5V14.1C10.4 13.8239 10.1761 13.6 9.9 13.6H8.5C8.22386 13.6 8 13.3761 8 13.1V10.9C8 10.6239 8.22386 10.4 8.5 10.4H9.9C10.1761 10.4 10.4 10.1761 10.4 9.9V7.2C10.4 6.35131 10.7371 5.53737 11.3373 4.93726C11.9374 4.33714 12.7513 4 13.6 4H15.5Z" fill="white"/>
</svg>
