<svg width="10" height="18" viewBox="0 0 10 18" fill="none" xmlns="http://www.w3.org/2000/svg">
<path d="M9 0C9.27614 0 9.5 0.223858 9.5 0.5V3.1C9.5 3.37614 9.27614 3.6 9 3.6H7.7C7.079 3.6 6.8 4.329 6.8 4.95V6.7C6.8 6.97614 7.02386 7.2 7.3 7.2H9C9.27614 7.2 9.5 7.42386 9.5 7.7V10.3C9.5 10.5761 9.27614 10.8 9 10.8H7.3C7.02386 10.8 6.8 11.0239 6.8 11.3V17.5C6.8 17.7761 6.57614 18 6.3 18H3.7C3.42386 18 3.2 17.7761 3.2 17.5V11.3C3.2 11.0239 2.97614 10.8 2.7 10.8H1C0.723858 10.8 0.5 10.5761 0.5 10.3V7.7C0.5 7.42386 0.723858 7.2 1 7.2H2.7C2.97614 7.2 3.2 6.97614 3.2 6.7V3.6C3.2 2.64522 3.57928 1.72955 4.25442 1.05442C4.92955 0.379285 5.84522 0 6.8 0H9Z" fill="#0E9BD6"/>
</svg>
