<svg width="18" height="18" viewBox="0 0 18 18" fill="none" xmlns="http://www.w3.org/2000/svg">
<path d="M17.5 18C17.7761 18 18 17.7761 18 17.5V10.8325C18 9.66319 17.5355 8.54182 16.7087 7.71502C15.8819 6.88823 14.7605 6.42374 13.5913 6.42374C12.7978 6.42374 11.9142 6.75879 11.2294 7.31325C10.9699 7.52337 10.4538 7.34575 10.4538 7.01184V7.01184C10.4538 6.82895 10.3055 6.68069 10.1226 6.68069H7.18069C6.90455 6.68069 6.68069 6.90455 6.68069 7.18069V17.5C6.68069 17.7761 6.90455 18 7.18069 18H9.95379C10.2299 18 10.4538 17.7761 10.4538 17.5V11.3328C10.4538 10.2915 11.2923 9.43952 12.3336 9.43952C12.8357 9.43952 13.3173 9.63899 13.6724 9.99406C14.0274 10.3491 14.2269 10.8307 14.2269 11.3328V17.5C14.2269 17.7761 14.4508 18 14.7269 18H17.5ZM2.2855 4.55748C2.88807 4.55748 3.46595 4.31811 3.89203 3.89203C4.31811 3.46595 4.55748 2.88807 4.55748 2.2855C4.55748 1.0278 3.5432 0 2.2855 0C1.67935 0 1.09802 0.240793 0.669407 0.669407C0.240793 1.09802 0 1.67935 0 2.2855C0 3.5432 1.0278 4.55748 2.2855 4.55748ZM3.66529 18C3.94143 18 4.16529 17.7761 4.16529 17.5V7.18069C4.16529 6.90455 3.94143 6.68069 3.66529 6.68069H0.919234C0.643091 6.68069 0.419234 6.90455 0.419234 7.18069V17.5C0.419234 17.7761 0.643091 18 0.919234 18H3.66529Z" fill="#05508B"/>
</svg>
