<svg width="24" height="24" viewBox="0 0 24 24" fill="none" xmlns="http://www.w3.org/2000/svg">
<path d="M19.5 20C19.7761 20 20 19.7761 20 19.5V13.6289C20 12.5895 19.5871 11.5927 18.8522 10.8578C18.1173 10.1229 17.1205 9.70999 16.0811 9.70999C15.3759 9.70999 14.5904 10.0078 13.9817 10.5007C13.751 10.6874 13.2923 10.5296 13.2923 10.2327C13.2923 10.0702 13.1605 9.93839 12.9979 9.93839H10.4384C10.1623 9.93839 9.93839 10.1623 9.93839 10.4384V19.5C9.93839 19.7761 10.1623 20 10.4384 20H12.7923C13.0684 20 13.2923 19.7761 13.2923 19.5V14.0736C13.2923 13.148 14.0376 12.3907 14.9632 12.3907C15.4095 12.3907 15.8376 12.568 16.1532 12.8836C16.4688 13.1992 16.6461 13.6273 16.6461 14.0736V19.5C16.6461 19.7761 16.87 20 17.1461 20H19.5ZM6.03156 8.05109C6.56717 8.05109 7.08085 7.83832 7.45958 7.45958C7.83832 7.08085 8.05109 6.56717 8.05109 6.03156C8.05109 4.9136 7.14951 4 6.03156 4C5.49275 4 4.97602 4.21404 4.59503 4.59503C4.21404 4.97602 4 5.49275 4 6.03156C4 7.14951 4.9136 8.05109 6.03156 8.05109ZM7.20248 20C7.47862 20 7.70248 19.7761 7.70248 19.5V10.4384C7.70248 10.1623 7.47862 9.93839 7.20248 9.93839H4.87265C4.59651 9.93839 4.37265 10.1623 4.37265 10.4384V19.5C4.37265 19.7761 4.59651 20 4.87265 20H7.20248Z" fill="white"/>
</svg>
