<svg width="40" height="40" viewBox="0 0 40 40" fill="none" xmlns="http://www.w3.org/2000/svg">
<path fill-rule="evenodd" clip-rule="evenodd" d="M0 20C0 8.95353 8.95278 0 20 0C31.0465 0 40 8.95278 40 20C40 31.0465 31.0472 40 20 40C8.95353 40 0 31.0472 0 20ZM2 20C2 29.9426 10.0581 38 20 38C29.9426 38 38 29.9419 38 20C38 10.0574 29.9419 2 20 2C10.0574 2 2 10.0581 2 20ZM28.2929 12.2929L17 23.5858L11.7071 18.2929C10.7643 17.3501 9.35008 18.7643 10.2929 19.7071L16.2929 25.7071L16.3043 25.7184L16.3192 25.7326C16.5034 25.9052 16.7455 26.0155 17 26.018C17.2666 26.0154 17.5197 25.8944 17.7068 25.7074L17.7071 25.7071L29.7071 13.7071C30.6499 12.7643 29.2357 11.3501 28.2929 12.2929Z" fill="#0E9BD6"/>
</svg>
